<mxfile host="65bd71144e">
    <diagram id="nGF2uJl1MTwRUzRe3kCA" name="Page-1">
        <mxGraphModel dx="1133" dy="807" grid="1" gridSize="10" guides="1" tooltips="1" connect="1" arrows="1" fold="1" page="1" pageScale="1" pageWidth="850" pageHeight="1100" math="0" shadow="0">
            <root>
                <mxCell id="0"/>
                <mxCell id="1" parent="0"/>
                <mxCell id="2" value="问卷发起端逻辑" style="swimlane;childLayout=stackLayout;resizeParent=1;resizeParentMax=0;startSize=20;" parent="1" vertex="1">
                    <mxGeometry x="60" y="50" width="1425" height="1660" as="geometry"/>
                </mxCell>
                <mxCell id="3" value="前端" style="swimlane;startSize=20;" parent="2" vertex="1">
                    <mxGeometry y="20" width="530" height="1640" as="geometry"/>
                </mxCell>
                <mxCell id="11" value="问卷面板" style="rounded=0;whiteSpace=wrap;html=1;" parent="3" vertex="1">
                    <mxGeometry x="200" y="90" width="120" height="60" as="geometry"/>
                </mxCell>
                <mxCell id="16" value="创建按钮" style="whiteSpace=wrap;html=1;" parent="3" vertex="1">
                    <mxGeometry x="200" y="235" width="120" height="60" as="geometry"/>
                </mxCell>
                <mxCell id="55" value="" style="edgeStyle=none;html=1;" parent="3" source="20" target="54" edge="1">
                    <mxGeometry relative="1" as="geometry"/>
                </mxCell>
                <mxCell id="20" value="问卷列表" style="whiteSpace=wrap;html=1;" parent="3" vertex="1">
                    <mxGeometry x="200" y="1095" width="120" height="60" as="geometry"/>
                </mxCell>
                <mxCell id="54" value="" style="shape=curlyBracket;whiteSpace=wrap;html=1;rounded=1;size=0;" parent="3" vertex="1">
                    <mxGeometry x="390" y="1010" width="20" height="340" as="geometry"/>
                </mxCell>
                <mxCell id="73" value="转跳控制台数据页" style="whiteSpace=wrap;html=1;" parent="3" vertex="1">
                    <mxGeometry x="200" y="1300" width="120" height="60" as="geometry"/>
                </mxCell>
                <mxCell id="74" value="" style="edgeStyle=none;html=1;" parent="3" source="20" target="73" edge="1">
                    <mxGeometry relative="1" as="geometry"/>
                </mxCell>
                <mxCell id="75" value="数据" style="edgeLabel;html=1;align=center;verticalAlign=middle;resizable=0;points=[];" parent="74" vertex="1" connectable="0">
                    <mxGeometry x="0.0621" y="1" relative="1" as="geometry">
                        <mxPoint as="offset"/>
                    </mxGeometry>
                </mxCell>
                <mxCell id="4" value="问卷sdk" style="swimlane;startSize=20;" parent="2" vertex="1">
                    <mxGeometry x="530" y="20" width="495" height="1640" as="geometry"/>
                </mxCell>
                <mxCell id="25" value="创建问卷视图" style="whiteSpace=wrap;html=1;" parent="4" vertex="1">
                    <mxGeometry x="150" y="320" width="110" height="60" as="geometry"/>
                </mxCell>
                <mxCell id="40" value="" style="edgeStyle=none;html=1;" parent="4" source="25" edge="1">
                    <mxGeometry relative="1" as="geometry">
                        <mxPoint x="205" y="430" as="targetPoint"/>
                    </mxGeometry>
                </mxCell>
                <mxCell id="41" value="创建完成" style="edgeLabel;html=1;align=center;verticalAlign=middle;resizable=0;points=[];" parent="40" vertex="1" connectable="0">
                    <mxGeometry x="0.15" relative="1" as="geometry">
                        <mxPoint as="offset"/>
                    </mxGeometry>
                </mxCell>
                <mxCell id="47" value="" style="edgeStyle=none;html=1;" parent="4" source="42" target="46" edge="1">
                    <mxGeometry relative="1" as="geometry"/>
                </mxCell>
                <mxCell id="48" value="是" style="edgeLabel;html=1;align=center;verticalAlign=middle;resizable=0;points=[];" parent="47" vertex="1" connectable="0">
                    <mxGeometry x="-0.05" y="2" relative="1" as="geometry">
                        <mxPoint as="offset"/>
                    </mxGeometry>
                </mxCell>
                <mxCell id="42" value="是否分享资料库" style="html=1;whiteSpace=wrap;aspect=fixed;shape=isoRectangle;" parent="4" vertex="1">
                    <mxGeometry x="130" y="430" width="150" height="90" as="geometry"/>
                </mxCell>
                <mxCell id="46" value="是否主持人" style="html=1;whiteSpace=wrap;aspect=fixed;shape=isoRectangle;" parent="4" vertex="1">
                    <mxGeometry x="130" y="590" width="150" height="90" as="geometry"/>
                </mxCell>
                <mxCell id="63" value="编辑问卷视图" style="rounded=0;whiteSpace=wrap;html=1;" parent="4" vertex="1">
                    <mxGeometry x="145" y="980" width="120" height="60" as="geometry"/>
                </mxCell>
                <mxCell id="81" value="预览视图" style="rounded=0;whiteSpace=wrap;html=1;" vertex="1" parent="4">
                    <mxGeometry x="145" y="1320" width="120" height="60" as="geometry"/>
                </mxCell>
                <mxCell id="5" value="后端" style="swimlane;startSize=20;" parent="2" vertex="1">
                    <mxGeometry x="1025" y="20" width="400" height="1640" as="geometry"/>
                </mxCell>
                <mxCell id="15" value="" style="edgeStyle=none;html=1;" parent="5" source="12" target="14" edge="1">
                    <mxGeometry relative="1" as="geometry"/>
                </mxCell>
                <mxCell id="12" value="列表接口" style="whiteSpace=wrap;html=1;rounded=0;" parent="5" vertex="1">
                    <mxGeometry x="160" y="90" width="120" height="60" as="geometry"/>
                </mxCell>
                <mxCell id="14" value="是否有列表数据" style="html=1;whiteSpace=wrap;aspect=fixed;shape=isoRectangle;" parent="5" vertex="1">
                    <mxGeometry x="145" y="220" width="150" height="90" as="geometry"/>
                </mxCell>
                <mxCell id="43" value="创建房间问卷" style="whiteSpace=wrap;html=1;" parent="5" vertex="1">
                    <mxGeometry x="160" y="445" width="120" height="60" as="geometry"/>
                </mxCell>
                <mxCell id="49" value="复制资料库问卷" style="whiteSpace=wrap;html=1;" parent="5" vertex="1">
                    <mxGeometry x="160" y="605" width="120" height="60" as="geometry"/>
                </mxCell>
                <mxCell id="52" value="复制为其他类型资料库问卷" style="whiteSpace=wrap;html=1;" parent="5" vertex="1">
                    <mxGeometry x="160" y="775" width="120" height="60" as="geometry"/>
                </mxCell>
                <mxCell id="66" value="推送问卷" style="rounded=0;whiteSpace=wrap;html=1;" parent="5" vertex="1">
                    <mxGeometry x="160" y="1030" width="120" height="60" as="geometry"/>
                </mxCell>
                <mxCell id="69" value="复制问卷" style="rounded=0;whiteSpace=wrap;html=1;" parent="5" vertex="1">
                    <mxGeometry x="160" y="1131" width="120" height="60" as="geometry"/>
                </mxCell>
                <mxCell id="72" value="删除问卷" style="rounded=0;whiteSpace=wrap;html=1;" parent="5" vertex="1">
                    <mxGeometry x="160" y="1210" width="120" height="60" as="geometry"/>
                </mxCell>
                <mxCell id="13" value="" style="edgeStyle=none;html=1;" parent="2" source="11" target="12" edge="1">
                    <mxGeometry relative="1" as="geometry"/>
                </mxCell>
                <mxCell id="19" value="条件查询" style="edgeLabel;html=1;align=center;verticalAlign=middle;resizable=0;points=[];" parent="13" vertex="1" connectable="0">
                    <mxGeometry x="-0.0026" y="1" relative="1" as="geometry">
                        <mxPoint as="offset"/>
                    </mxGeometry>
                </mxCell>
                <mxCell id="17" value="" style="edgeStyle=none;html=1;" parent="2" source="14" target="16" edge="1">
                    <mxGeometry relative="1" as="geometry"/>
                </mxCell>
                <mxCell id="18" value="否" style="edgeLabel;html=1;align=center;verticalAlign=middle;resizable=0;points=[];" parent="17" vertex="1" connectable="0">
                    <mxGeometry x="-0.0228" y="2" relative="1" as="geometry">
                        <mxPoint as="offset"/>
                    </mxGeometry>
                </mxCell>
                <mxCell id="21" value="" style="edgeStyle=none;html=1;entryX=0.5;entryY=0;entryDx=0;entryDy=0;" parent="2" target="20" edge="1">
                    <mxGeometry relative="1" as="geometry">
                        <mxPoint x="1320" y="285" as="sourcePoint"/>
                        <Array as="points">
                            <mxPoint x="1380" y="285"/>
                            <mxPoint x="1380" y="950"/>
                            <mxPoint x="260" y="950"/>
                        </Array>
                    </mxGeometry>
                </mxCell>
                <mxCell id="22" value="是" style="edgeLabel;html=1;align=center;verticalAlign=middle;resizable=0;points=[];" parent="21" vertex="1" connectable="0">
                    <mxGeometry x="0.1286" y="-3" relative="1" as="geometry">
                        <mxPoint as="offset"/>
                    </mxGeometry>
                </mxCell>
                <mxCell id="37" value="" style="edgeStyle=none;html=1;entryX=0;entryY=0.5;entryDx=0;entryDy=0;" parent="2" target="25" edge="1">
                    <mxGeometry relative="1" as="geometry">
                        <mxPoint x="260" y="320" as="sourcePoint"/>
                        <Array as="points">
                            <mxPoint x="260" y="370"/>
                        </Array>
                    </mxGeometry>
                </mxCell>
                <mxCell id="38" value="创建问卷" style="edgeLabel;html=1;align=center;verticalAlign=middle;resizable=0;points=[];" parent="37" vertex="1" connectable="0">
                    <mxGeometry x="0.0913" y="-2" relative="1" as="geometry">
                        <mxPoint as="offset"/>
                    </mxGeometry>
                </mxCell>
                <mxCell id="44" value="" style="edgeStyle=none;html=1;" parent="2" source="42" target="43" edge="1">
                    <mxGeometry relative="1" as="geometry"/>
                </mxCell>
                <mxCell id="45" value="否" style="edgeLabel;html=1;align=center;verticalAlign=middle;resizable=0;points=[];" parent="44" vertex="1" connectable="0">
                    <mxGeometry x="-0.008" y="-3" relative="1" as="geometry">
                        <mxPoint as="offset"/>
                    </mxGeometry>
                </mxCell>
                <mxCell id="50" value="" style="edgeStyle=none;html=1;" parent="2" source="46" target="49" edge="1">
                    <mxGeometry relative="1" as="geometry"/>
                </mxCell>
                <mxCell id="51" value="是" style="edgeLabel;html=1;align=center;verticalAlign=middle;resizable=0;points=[];" parent="50" vertex="1" connectable="0">
                    <mxGeometry x="-0.232" y="4" relative="1" as="geometry">
                        <mxPoint as="offset"/>
                    </mxGeometry>
                </mxCell>
                <mxCell id="53" value="否" style="edgeStyle=none;html=1;exitX=0.5;exitY=1.022;exitDx=0;exitDy=0;exitPerimeter=0;" parent="2" source="46" target="52" edge="1">
                    <mxGeometry relative="1" as="geometry">
                        <Array as="points">
                            <mxPoint x="735" y="825"/>
                        </Array>
                    </mxGeometry>
                </mxCell>
                <mxCell id="59" value="" style="endArrow=classic;html=1;exitX=1;exitY=0;exitDx=0;exitDy=0;exitPerimeter=0;" parent="2" source="54" target="63" edge="1">
                    <mxGeometry relative="1" as="geometry">
                        <mxPoint x="590" y="1080" as="sourcePoint"/>
                        <mxPoint x="700" y="1030" as="targetPoint"/>
                    </mxGeometry>
                </mxCell>
                <mxCell id="60" value="编辑问卷" style="edgeLabel;resizable=0;html=1;align=center;verticalAlign=middle;" parent="59" connectable="0" vertex="1">
                    <mxGeometry relative="1" as="geometry"/>
                </mxCell>
                <mxCell id="64" value="" style="endArrow=classic;html=1;" parent="2" target="66" edge="1">
                    <mxGeometry relative="1" as="geometry">
                        <mxPoint x="390" y="1080" as="sourcePoint"/>
                        <mxPoint x="1220" y="1080" as="targetPoint"/>
                        <Array as="points">
                            <mxPoint x="440" y="1080"/>
                        </Array>
                    </mxGeometry>
                </mxCell>
                <mxCell id="65" value="推送问卷" style="edgeLabel;resizable=0;html=1;align=center;verticalAlign=middle;" parent="64" connectable="0" vertex="1">
                    <mxGeometry relative="1" as="geometry"/>
                </mxCell>
                <mxCell id="67" value="" style="endArrow=classic;html=1;exitX=0;exitY=0.444;exitDx=0;exitDy=0;exitPerimeter=0;" parent="2" source="54" target="69" edge="1">
                    <mxGeometry relative="1" as="geometry">
                        <mxPoint x="400" y="1180" as="sourcePoint"/>
                        <mxPoint x="1180" y="1181" as="targetPoint"/>
                    </mxGeometry>
                </mxCell>
                <mxCell id="68" value="复制问卷" style="edgeLabel;resizable=0;html=1;align=center;verticalAlign=middle;" parent="67" connectable="0" vertex="1">
                    <mxGeometry relative="1" as="geometry"/>
                </mxCell>
                <mxCell id="70" value="" style="endArrow=classic;html=1;exitX=0.05;exitY=0.682;exitDx=0;exitDy=0;exitPerimeter=0;" parent="2" source="54" target="72" edge="1">
                    <mxGeometry relative="1" as="geometry">
                        <mxPoint x="580" y="1240" as="sourcePoint"/>
                        <mxPoint x="1180" y="1260" as="targetPoint"/>
                    </mxGeometry>
                </mxCell>
                <mxCell id="71" value="删除问卷" style="edgeLabel;resizable=0;html=1;align=center;verticalAlign=middle;" parent="70" connectable="0" vertex="1">
                    <mxGeometry relative="1" as="geometry"/>
                </mxCell>
                <mxCell id="79" value="" style="endArrow=classic;html=1;exitX=0.75;exitY=1;exitDx=0;exitDy=0;" edge="1" parent="2" source="54" target="81">
                    <mxGeometry relative="1" as="geometry">
                        <mxPoint x="710" y="1170" as="sourcePoint"/>
                        <mxPoint x="670" y="1370" as="targetPoint"/>
                    </mxGeometry>
                </mxCell>
                <mxCell id="80" value="预览" style="edgeLabel;resizable=0;html=1;align=center;verticalAlign=middle;" connectable="0" vertex="1" parent="79">
                    <mxGeometry relative="1" as="geometry"/>
                </mxCell>
                <mxCell id="82" value="fa" style="endArrow=classic;html=1;exitX=0.5;exitY=0;exitDx=0;exitDy=0;" edge="1" parent="1" source="81">
                    <mxGeometry relative="1" as="geometry">
                        <mxPoint x="770" y="1220" as="sourcePoint"/>
                        <mxPoint x="795" y="1130" as="targetPoint"/>
                    </mxGeometry>
                </mxCell>
                <mxCell id="83" value="发布" style="edgeLabel;resizable=0;html=1;align=center;verticalAlign=middle;" connectable="0" vertex="1" parent="82">
                    <mxGeometry relative="1" as="geometry"/>
                </mxCell>
            </root>
        </mxGraphModel>
    </diagram>
</mxfile>